999
dxfrw 0.6.3
  0
SECTION
  2
HEADER
  9
$ACADVER
  1
AC1021
  9
$DWGCODEPAGE
  3
ANSI_1252
  9
$INSBASE
 10
0
 20
0
 30
0
  9
$EXTMIN
 10
54.0060111318957
 20
1436.71427249669
 30
0
  9
$EXTMAX
 10
607.198790506936
 20
2313.07132323047
 30
0
  9
$LIMMIN
 10
0
 20
0
  9
$LIMMAX
 10
12
 20
9
  9
$ORTHOMODE
 70
    0
  9
$REGENMODE
 70
    1
  9
$FILLMODE
 70
    1
  9
$QTEXTMODE
 70
    0
  9
$MIRRTEXT
 70
    1
  9
$LTSCALE
 40
1
  9
$ATTMODE
 70
    1
  9
$TEXTSIZE
 40
0.2
  9
$TRACEWID
 40
0.05
  9
$TEXTSTYLE
  7
Standard
  9
$CLAYER
  8
0
  9
$CELTYPE
  6
ByLayer
  9
$CECOLOR
 62
  256
  9
$CELTSCALE
 40
1
  9
$DISPSILH
 70
    0
  9
$DIMSCALE
 40
1
  9
$DIMASZ
 40
0.18
  9
$DIMEXO
 40
0.0625
  9
$DIMDLI
 40
0.38
  9
$DIMRND
 40
0
  9
$DIMDLE
 40
0
  9
$DIMEXE
 40
0.18
  9
$DIMTP
 40
0
  9
$DIMTM
 40
0
  9
$DIMTXT
 40
0.18
  9
$DIMCEN
 40
0.09
  9
$DIMTSZ
 40
0
  9
$DIMTOL
 70
    0
  9
$DIMLIM
 70
    0
  9
$DIMTIH
 70
    1
  9
$DIMTOH
 70
    1
  9
$DIMSE1
 70
    0
  9
$DIMSE2
 70
    0
  9
$DIMTAD
 70
    0
  9
$DIMZIN
 70
    0
  9
$DIMBLK
  1

  9
$DIMASO
 70
    1
  9
$DIMSHO
 70
    1
  9
$DIMPOST
  1

  9
$DIMAPOST
  1

  9
$DIMALT
 70
    0
  9
$DIMALTD
 70
    2
  9
$DIMALTF
 40
25.4
  9
$DIMLFAC
 40
1
  9
$DIMTOFL
 70
    0
  9
$DIMTVP
 40
0
  9
$DIMTIX
 70
    0
  9
$DIMSOXD
 70
    0
  9
$DIMSAH
 70
    0
  9
$DIMBLK1
  1

  9
$DIMBLK2
  1

  9
$DIMSTYLE
  2
Standard
  9
$DIMCLRD
 70
  178
  9
$DIMCLRE
 70
  178
  9
$DIMCLRT
 70
  178
  9
$DIMTFAC
 40
1
  9
$DIMGAP
 40
0.09
  9
$DIMJUST
 70
    0
  9
$DIMSD1
 70
    0
  9
$DIMSD2
 70
    0
  9
$DIMTOLJ
 70
    1
  9
$DIMTZIN
 70
    0
  9
$DIMALTZ
 70
    0
  9
$DIMALTTZ
 70
    0
  9
$DIMUPT
 70
    0
  9
$DIMDEC
 70
    4
  9
$DIMTDEC
 70
    4
  9
$DIMALTU
 70
    2
  9
$DIMALTTD
 70
    2
  9
$DIMTXSTY
  7
Standard
  9
$DIMAUNIT
 70
    0
  9
$DIMADEC
 70
    0
  9
$DIMALTRND
 40
0
  9
$DIMAZIN
 70
    0
  9
$DIMDSEP
 70
   46
  9
$DIMATFIT
 70
    3
  9
$DIMFRAC
 70
    0
  9
$DIMLDRBLK
  1

  9
$DIMLUNIT
 70
    2
  9
$DIMLWD
 70
   -2
  9
$DIMLWE
 70
   -2
  9
$DIMTMOVE
 70
    0
  9
$DIMFXL
 40
1
  9
$DIMFXLON
 70
    0
  9
$DIMJOGANG
 40
0.7853981633974483
  9
$DIMTFILL
 70
    0
  9
$DIMTFILLCLR
 70
    0
  9
$DIMARCSYM
 70
    0
  9
$DIMLTYPE
  6

  9
$DIMLTEX1
  6

  9
$DIMLTEX2
  6

  9
$LUNITS
 70
    2
  9
$LUPREC
 70
    4
  9
$SKETCHINC
 40
0.1
  9
$FILLETRAD
 40
0.5
  9
$AUNITS
 70
    0
  9
$AUPREC
 70
    0
  9
$MENU
  1
.
  9
$ELEVATION
 40
0
  9
$PELEVATION
 40
0
  9
$THICKNESS
 40
0
  9
$LIMCHECK
 70
    0
  9
$CHAMFERA
 40
0
  9
$CHAMFERB
 40
0
  9
$CHAMFERC
 40
0
  9
$CHAMFERD
 40
0
  9
$SKPOLY
 70
    0
  9
$USRTIMER
 70
    1
  9
$ANGBASE
 50
0
  9
$ANGDIR
 70
    0
  9
$PDMODE
 70
    0
  9
$PDSIZE
 40
0
  9
$PLINEWID
 40
0
  9
$SPLFRAME
 70
    0
  9
$SPLINETYPE
 70
    6
  9
$SPLINESEGS
 70
    8
  9
$HANDSEED
  5
20000
  9
$SURFTAB1
 70
    6
  9
$SURFTAB2
 70
    6
  9
$SURFTYPE
 70
    6
  9
$SURFU
 70
    6
  9
$SURFV
 70
    6
  9
$UCSBASE
  2

  9
$UCSNAME
  2

  9
$UCSORG
 10
0
 20
0
 30
0
  9
$UCSXDIR
 10
1
 20
0
 30
0
  9
$UCSYDIR
 10
0
 20
1
 30
0
  9
$UCSORTHOREF
  2

  9
$UCSORTHOVIEW
 70
    0
  9
$UCSORGTOP
 10
0
 20
0
 30
0
  9
$UCSORGBOTTOM
 10
0
 20
0
 30
0
  9
$UCSORGLEFT
 10
0
 20
0
 30
0
  9
$UCSORGRIGHT
 10
0
 20
0
 30
0
  9
$UCSORGFRONT
 10
0
 20
0
 30
0
  9
$UCSORGBACK
 10
0
 20
0
 30
0
  9
$PUCSBASE
  2

  9
$PUCSNAME
  2

  9
$PUCSORG
 10
0
 20
0
 30
0
  9
$PUCSXDIR
 10
1
 20
0
 30
0
  9
$PUCSYDIR
 10
0
 20
1
 30
0
  9
$PUCSORTHOREF
  2

  9
$PUCSORTHOVIEW
 70
    0
  9
$PUCSORGTOP
 10
0
 20
0
 30
0
  9
$PUCSORGBOTTOM
 10
0
 20
0
 30
0
  9
$PUCSORGLEFT
 10
0
 20
0
 30
0
  9
$PUCSORGRIGHT
 10
0
 20
0
 30
0
  9
$PUCSORGFRONT
 10
0
 20
0
 30
0
  9
$PUCSORGBACK
 10
0
 20
0
 30
0
  9
$USERI1
 70
    0
  9
$USERI2
 70
    0
  9
$USERI3
 70
    0
  9
$USERI4
 70
    0
  9
$USERI5
 70
    0
  9
$USERR1
 40
0
  9
$USERR2
 40
0
  9
$USERR3
 40
0
  9
$USERR4
 40
0
  9
$USERR5
 40
0
  9
$WORLDVIEW
 70
    1
  9
$SHADEDGE
 70
    3
  9
$SHADEDIF
 70
   70
  9
$TILEMODE
 70
    1
  9
$MAXACTVP
 70
   64
  9
$PINSBASE
 10
0
 20
0
 30
0
  9
$PLIMCHECK
 70
    0
  9
$PEXTMIN
 10
1e+20
 20
1e+20
 30
1e+20
  9
$PEXTMAX
 10
-1e+20
 20
-1e+20
 30
-1e+20
  9
$GRIDMODE
 70
    0
  9
$SNAPSTYLE
 70
    0
  9
$PLIMMIN
 10
-0.25
 20
-0.25
  9
$PLIMMAX
 10
10.75
 20
8.25
  9
$UNITMODE
 70
    0
  9
$VISRETAIN
 70
    1
  9
$PLINEGEN
 70
    0
  9
$PSLTSCALE
 70
    1
  9
$TREEDEPTH
 70
 3020
  9
$CMLSTYLE
  2
Standard
  9
$CMLJUST
 70
    0
  9
$CMLSCALE
 40
1
  9
$PROXYGRAPHICS
 70
    1
  9
$MEASUREMENT
 70
    0
  9
$CELWEIGHT
370
   -1
  9
$ENDCAPS
280
    0
  9
$JOINSTYLE
280
    0
  9
$LWDISPLAY
290
    0
  9
$INSUNITS
 70
    0
  9
$HYPERLINKBASE
  1

  9
$STYLESHEET
  1

  9
$XEDIT
290
    1
  9
$CEPSNTYPE
380
    0
  9
$PSTYLEMODE
290
    1
  9
$EXTNAMES
290
    1
  9
$PSVPSCALE
 40
0
  9
$OLESTARTUP
290
    0
  9
$SORTENTS
280
  127
  9
$INDEXCTL
280
    0
  9
$HIDETEXT
280
    1
  9
$XCLIPFRAME
290
    2
  9
$HALOGAP
280
    0
  9
$OBSCOLOR
 70
  257
  9
$OBSLTYPE
280
    0
  9
$INTERSECTIONDISPLAY
280
    0
  9
$INTERSECTIONCOLOR
 70
  257
  9
$DIMASSOC
280
    2
  9
$PROJECTNAME
  1

  9
$CAMERADISPLAY
290
    0
  9
$LENSLENGTH
 40
50
  9
$CAMERAHEIGHT
 40
0
  9
$STEPSPERSEC
 40
2
  9
$STEPSIZE
 40
6
  9
$3DDWFPREC
 40
2
  9
$PSOLWIDTH
 40
0.25
  9
$PSOLHEIGHT
 40
4
  9
$LOFTANG1
 40
1.570796326794897
  9
$LOFTANG2
 40
1.570796326794897
  9
$LOFTMAG1
 40
0
  9
$LOFTMAG2
 40
0
  9
$LOFTPARAM
 70
    7
  9
$LOFTNORMALS
280
    1
  9
$LATITUDE
 40
37.795
  9
$LONGITUDE
 40
-122.394
  9
$NORTHDIRECTION
 40
0
  9
$TIMEZONE
 70
-8000
  9
$LIGHTGLYPHDISPLAY
280
    1
  9
$TILEMODELIGHTSYNCH
280
    1
  9
$SOLIDHIST
280
    0
  9
$SHOWHIST
280
    1
  9
$DWFFRAME
280
    2
  9
$DGNFRAME
280
    2
  9
$REALWORLDSCALE
290
    1
  9
$INTERFERECOLOR
 62
  256
  9
$CSHADOW
280
    0
  9
$SHADOWPLANELOCATION
 40
0
  0
ENDSEC
  0
SECTION
  2
CLASSES
  0
ENDSEC
  0
SECTION
  2
TABLES
  0
TABLE
  2
VPORT
  5
8
330
0
100
AcDbSymbolTable
 70
    1
  0
VPORT
  5
31
330
2
100
AcDbSymbolTableRecord
100
AcDbViewportTableRecord
  2
*ACTIVE
 70
    0
 10
0
 20
0
 11
1
 21
1
 12
545.6562768719763
 22
1162.964388080677
 13
0
 23
0
 14
10
 24
10
 15
10
 25
10
 16
0
 26
0
 36
1
 17
0
 27
0
 37
0
 40
903.9154485555971
 41
1.68140243902439
 42
50
 43
0
 44
0
 50
0
 51
0
 71
    0
 72
  100
 73
    1
 74
    3
 75
    0
 76
    0
 77
    0
 78
    0
281
    0
 65
    1
110
0
120
0
130
0
111
1
121
0
131
0
112
0
122
1
132
0
 79
    0
146
0
348
10020
 60
    7
 61
    5
292
1
282
    1
141
0
142
0
 63
  250
421
3358443
  0
ENDTAB
  0
TABLE
  2
LTYPE
  5
5
330
0
100
AcDbSymbolTable
 70
    4
  0
LTYPE
  5
14
330
5
100
AcDbSymbolTableRecord
100
AcDbLinetypeTableRecord
  2
ByBlock
 70
    0
  3

 72
   65
 73
    0
 40
0
  0
LTYPE
  5
15
330
5
100
AcDbSymbolTableRecord
100
AcDbLinetypeTableRecord
  2
ByLayer
 70
    0
  3

 72
   65
 73
    0
 40
0
  0
LTYPE
  5
16
330
5
100
AcDbSymbolTableRecord
100
AcDbLinetypeTableRecord
  2
Continuous
 70
    0
  3
Solid line
 72
   65
 73
    0
 40
0
  0
LTYPE
  5
32
330
5
100
AcDbSymbolTableRecord
100
AcDbLinetypeTableRecord
  2
DOT
 70
    0
  3
Dot . . . . . . . . . . . . . . . . . . . . . .
 72
   65
 73
    2
 40
6.35
 49
0
 74
    0
 49
-6.35
 74
    0
  0
LTYPE
  5
33
330
5
100
AcDbSymbolTableRecord
100
AcDbLinetypeTableRecord
  2
DOTTINY
 70
    0
  3
Dot (.15x) .....................................
 72
   65
 73
    2
 40
0.9525
 49
0
 74
    0
 49
-0.9525
 74
    0
  0
LTYPE
  5
34
330
5
100
AcDbSymbolTableRecord
100
AcDbLinetypeTableRecord
  2
DOT2
 70
    0
  3
Dot (.5x) .....................................
 72
   65
 73
    2
 40
3.175
 49
0
 74
    0
 49
-3.175
 74
    0
  0
LTYPE
  5
35
330
5
100
AcDbSymbolTableRecord
100
AcDbLinetypeTableRecord
  2
DOTX2
 70
    0
  3
Dot (2x) .  .  .  .  .  .  .  .  .  .  .  .  .
 72
   65
 73
    2
 40
12.7
 49
0
 74
    0
 49
-12.7
 74
    0
  0
LTYPE
  5
36
330
5
100
AcDbSymbolTableRecord
100
AcDbLinetypeTableRecord
  2
DASHED
 70
    0
  3
Dashed _ _ _ _ _ _ _ _ _ _ _ _ _ _ _ _ _
 72
   65
 73
    2
 40
19.05
 49
12.7
 74
    0
 49
-6.35
 74
    0
  0
LTYPE
  5
37
330
5
100
AcDbSymbolTableRecord
100
AcDbLinetypeTableRecord
  2
DASHEDTINY
 70
    0
  3
Dashed (.15x) _ _ _ _ _ _ _ _ _ _ _ _ _ _ _ _ _
 72
   65
 73
    2
 40
2.8575
 49
1.905
 74
    0
 49
-0.9525
 74
    0
  0
LTYPE
  5
38
330
5
100
AcDbSymbolTableRecord
100
AcDbLinetypeTableRecord
  2
DASHED2
 70
    0
  3
Dashed (.5x) _ _ _ _ _ _ _ _ _ _ _ _ _ _ _ _ _
 72
   65
 73
    2
 40
9.524999999999999
 49
6.35
 74
    0
 49
-3.175
 74
    0
  0
LTYPE
  5
39
330
5
100
AcDbSymbolTableRecord
100
AcDbLinetypeTableRecord
  2
DASHEDX2
 70
    0
  3
Dashed (2x) ____  ____  ____  ____  ____  ___
 72
   65
 73
    2
 40
38.09999999999999
 49
25.4
 74
    0
 49
-12.7
 74
    0
  0
LTYPE
  5
3A
330
5
100
AcDbSymbolTableRecord
100
AcDbLinetypeTableRecord
  2
DASHDOT
 70
    0
  3
Dash dot __ . __ . __ . __ . __ . __ . __ . __
 72
   65
 73
    4
 40
25.4
 49
12.7
 74
    0
 49
-6.35
 74
    0
 49
0
 74
    0
 49
-6.35
 74
    0
  0
LTYPE
  5
3B
330
5
100
AcDbSymbolTableRecord
100
AcDbLinetypeTableRecord
  2
DASHDOTTINY
 70
    0
  3
Dash dot (.15x) _._._._._._._._._._._._._._._.
 72
   65
 73
    4
 40
3.81
 49
1.905
 74
    0
 49
-0.9525
 74
    0
 49
0
 74
    0
 49
-0.9525
 74
    0
  0
LTYPE
  5
3C
330
5
100
AcDbSymbolTableRecord
100
AcDbLinetypeTableRecord
  2
DASHDOT2
 70
    0
  3
Dash dot (.5x) _._._._._._._._._._._._._._._.
 72
   65
 73
    4
 40
12.7
 49
6.35
 74
    0
 49
-3.175
 74
    0
 49
0
 74
    0
 49
-3.175
 74
    0
  0
LTYPE
  5
3D
330
5
100
AcDbSymbolTableRecord
100
AcDbLinetypeTableRecord
  2
DASHDOTX2
 70
    0
  3
Dash dot (2x) ____  .  ____  .  ____  .  ___
 72
   65
 73
    4
 40
50.8
 49
25.4
 74
    0
 49
-12.7
 74
    0
 49
0
 74
    0
 49
-12.7
 74
    0
  0
LTYPE
  5
3E
330
5
100
AcDbSymbolTableRecord
100
AcDbLinetypeTableRecord
  2
DIVIDE
 70
    0
  3
Divide ____ . . ____ . . ____ . . ____ . . ____
 72
   65
 73
    6
 40
31.75
 49
12.7
 74
    0
 49
-6.35
 74
    0
 49
0
 74
    0
 49
-6.35
 74
    0
 49
0
 74
    0
 49
-6.35
 74
    0
  0
LTYPE
  5
3F
330
5
100
AcDbSymbolTableRecord
100
AcDbLinetypeTableRecord
  2
DIVIDETINY
 70
    0
  3
Divide (.15x) __..__..__..__..__..__..__..__.._
 72
   65
 73
    6
 40
4.7625
 49
1.905
 74
    0
 49
-0.9525
 74
    0
 49
0
 74
    0
 49
-0.9525
 74
    0
 49
0
 74
    0
 49
-0.9525
 74
    0
  0
LTYPE
  5
40
330
5
100
AcDbSymbolTableRecord
100
AcDbLinetypeTableRecord
  2
DIVIDE2
 70
    0
  3
Divide (.5x) __..__..__..__..__..__..__..__.._
 72
   65
 73
    6
 40
15.875
 49
6.35
 74
    0
 49
-3.175
 74
    0
 49
0
 74
    0
 49
-3.175
 74
    0
 49
0
 74
    0
 49
-3.175
 74
    0
  0
LTYPE
  5
41
330
5
100
AcDbSymbolTableRecord
100
AcDbLinetypeTableRecord
  2
DIVIDEX2
 70
    0
  3
Divide (2x) ________  .  .  ________  .  .  _
 72
   65
 73
    6
 40
63.5
 49
25.4
 74
    0
 49
-12.7
 74
    0
 49
0
 74
    0
 49
-12.7
 74
    0
 49
0
 74
    0
 49
-12.7
 74
    0
  0
LTYPE
  5
42
330
5
100
AcDbSymbolTableRecord
100
AcDbLinetypeTableRecord
  2
BORDER
 70
    0
  3
Border __ __ . __ __ . __ __ . __ __ . __ __ .
 72
   65
 73
    6
 40
44.45
 49
12.7
 74
    0
 49
-6.35
 74
    0
 49
12.7
 74
    0
 49
-6.35
 74
    0
 49
0
 74
    0
 49
-6.35
 74
    0
  0
LTYPE
  5
43
330
5
100
AcDbSymbolTableRecord
100
AcDbLinetypeTableRecord
  2
BORDERTINY
 70
    0
  3
Border (.15x) __.__.__.__.__.__.__.__.__.__.__.
 72
   65
 73
    6
 40
6.6675
 49
1.905
 74
    0
 49
-0.9525
 74
    0
 49
1.905
 74
    0
 49
-0.9525
 74
    0
 49
0
 74
    0
 49
-0.9525
 74
    0
  0
LTYPE
  5
44
330
5
100
AcDbSymbolTableRecord
100
AcDbLinetypeTableRecord
  2
BORDER2
 70
    0
  3
Border (.5x) __.__.__.__.__.__.__.__.__.__.__.
 72
   65
 73
    6
 40
22.225
 49
6.35
 74
    0
 49
-3.175
 74
    0
 49
6.35
 74
    0
 49
-3.175
 74
    0
 49
0
 74
    0
 49
-3.175
 74
    0
  0
LTYPE
  5
45
330
5
100
AcDbSymbolTableRecord
100
AcDbLinetypeTableRecord
  2
BORDERX2
 70
    0
  3
Border (2x) ____  ____  .  ____  ____  .  ___
 72
   65
 73
    6
 40
88.89999999999999
 49
25.4
 74
    0
 49
-12.7
 74
    0
 49
25.4
 74
    0
 49
-12.7
 74
    0
 49
0
 74
    0
 49
-12.7
 74
    0
  0
LTYPE
  5
46
330
5
100
AcDbSymbolTableRecord
100
AcDbLinetypeTableRecord
  2
CENTER
 70
    0
  3
Center ____ _ ____ _ ____ _ ____ _ ____ _ ____
 72
   65
 73
    4
 40
50.8
 49
31.75
 74
    0
 49
-6.35
 74
    0
 49
6.35
 74
    0
 49
-6.35
 74
    0
  0
LTYPE
  5
47
330
5
100
AcDbSymbolTableRecord
100
AcDbLinetypeTableRecord
  2
CENTERTINY
 70
    0
  3
Center (.15x) ___ _ ___ _ ___ _ ___ _ ___ _ ___
 72
   65
 73
    4
 40
7.619999999999999
 49
4.7625
 74
    0
 49
-0.9525
 74
    0
 49
0.9525
 74
    0
 49
-0.9525
 74
    0
  0
LTYPE
  5
48
330
5
100
AcDbSymbolTableRecord
100
AcDbLinetypeTableRecord
  2
CENTER2
 70
    0
  3
Center (.5x) ___ _ ___ _ ___ _ ___ _ ___ _ ___
 72
   65
 73
    4
 40
28.575
 49
19.05
 74
    0
 49
-3.175
 74
    0
 49
3.175
 74
    0
 49
-3.175
 74
    0
  0
LTYPE
  5
49
330
5
100
AcDbSymbolTableRecord
100
AcDbLinetypeTableRecord
  2
CENTERX2
 70
    0
  3
Center (2x) ________  __  ________  __  _____
 72
   65
 73
    4
 40
101.6
 49
63.5
 74
    0
 49
-12.7
 74
    0
 49
12.7
 74
    0
 49
-12.7
 74
    0
  0
ENDTAB
  0
TABLE
  2
LAYER
  5
2
330
0
100
AcDbSymbolTable
 70
    1
  0
LAYER
  5
10
330
2
100
AcDbSymbolTableRecord
100
AcDbLayerTableRecord
  2
0
 70
    0
 62
    7
  6
CONTINUOUS
370
   -3
390
F
  0
LAYER
  5
4A
330
2
100
AcDbSymbolTableRecord
100
AcDbLayerTableRecord
  2
Back
 70
    0
 62
    7
  6
CONTINUOUS
370
   -3
390
F
  0
LAYER
  5
4B
330
2
100
AcDbSymbolTableRecord
100
AcDbLayerTableRecord
  2
Bottom
 70
    0
 62
    7
  6
CONTINUOUS
370
   -3
390
F
  0
LAYER
  5
4C
330
2
100
AcDbSymbolTableRecord
100
AcDbLayerTableRecord
  2
Front
 70
    0
 62
    7
  6
CONTINUOUS
370
   -3
390
F
  0
LAYER
  5
4D
330
2
100
AcDbSymbolTableRecord
100
AcDbLayerTableRecord
  2
Sides
 70
    0
 62
    7
  6
CONTINUOUS
370
   -3
390
F
  0
LAYER
  5
4E
330
2
100
AcDbSymbolTableRecord
100
AcDbLayerTableRecord
  2
Top
 70
    0
 62
    7
  6
CONTINUOUS
370
   -3
390
F
  0
ENDTAB
  0
TABLE
  2
STYLE
  5
3
330
0
100
AcDbSymbolTable
 70
    3
  0
STYLE
  5
4F
330
2
100
AcDbSymbolTableRecord
100
AcDbTextStyleTableRecord
  2
Standard
 70
    0
 40
0
 41
1
 50
0
 71
    0
 42
1
  3
txt
  4

  0
ENDTAB
  0
TABLE
  2
VIEW
  5
6
330
0
100
AcDbSymbolTable
 70
    0
  0
ENDTAB
  0
TABLE
  2
UCS
  5
7
330
0
100
AcDbSymbolTable
 70
    0
  0
ENDTAB
  0
TABLE
  2
APPID
  5
9
330
0
100
AcDbSymbolTable
 70
    1
  0
APPID
  5
12
330
9
100
AcDbSymbolTableRecord
100
AcDbRegAppTableRecord
  2
ACAD
 70
    0
  0
APPID
  5
50
330
9
100
AcDbSymbolTableRecord
100
AcDbRegAppTableRecord
  2
LibreCad
 70
    0
  0
ENDTAB
  0
TABLE
  2
DIMSTYLE
  5
A
330
0
100
AcDbSymbolTable
 70
    1
100
AcDbDimStyleTable
 71
    1
  0
DIMSTYLE
105
51
330
A
100
AcDbSymbolTableRecord
100
AcDbDimStyleTableRecord
  2
Standard
 70
    0
 40
1
 41
0.18
 42
0.0625
 43
0.38
 44
0.18
 45
0
 46
0
 47
0
 48
0
 49
1
140
0.18
141
0.09
142
0
143
25.4
144
1
145
0
146
1
147
0.09
148
0
 71
    0
 72
    0
 73
    1
 74
    1
 75
    0
 76
    0
 77
    0
 78
    0
 79
    0
170
    0
171
    2
172
    0
173
    0
174
    0
175
    0
176
  178
177
  178
178
  178
179
    0
271
    4
272
    4
273
    2
274
    2
275
    0
276
    0
277
    2
278
   46
279
    0
280
    0
281
    0
282
    0
283
    1
284
    0
285
    0
286
    0
288
    0
289
    3
340
Standard
341

371
   -2
372
   -2
  0
ENDTAB
  0
TABLE
  2
BLOCK_RECORD
  5
1
330
0
100
AcDbSymbolTable
 70
    2
  0
BLOCK_RECORD
  5
1F
330
1
100
AcDbSymbolTableRecord
100
AcDbBlockTableRecord
  2
*Model_Space
 70
    0
280
    1
281
    0
  0
BLOCK_RECORD
  5
1E
330
1
100
AcDbSymbolTableRecord
100
AcDbBlockTableRecord
  2
*Paper_Space
 70
    0
280
    1
281
    0
  0
ENDTAB
  0
ENDSEC
  0
SECTION
  2
BLOCKS
  0
BLOCK
  5
20
330
1F
100
AcDbEntity
  8
0
100
AcDbBlockBegin
  2
*Model_Space
 70
    0
 10
0
 20
0
 30
0
  3
*Model_Space
  1

  0
ENDBLK
  5
21
330
1F
100
AcDbEntity
  8
0
100
AcDbBlockEnd
  0
BLOCK
  5
1C
330
1B
100
AcDbEntity
  8
0
100
AcDbBlockBegin
  2
*Paper_Space
 70
    0
 10
0
 20
0
 30
0
  3
*Paper_Space
  1

  0
ENDBLK
  5
1D
330
1F
100
AcDbEntity
  8
0
100
AcDbBlockEnd
  0
ENDSEC
  0
SECTION
  2
ENTITIES
  0
LWPOLYLINE
  5
52
100
AcDbEntity
  8
Bottom
  6
ByLayer
 62
  256
370
   -1
100
AcDbPolyline
 90
   87
 70
    0
 43
0
 10
69.88526128298335
 20
1772.77016004771
 10
82.385261282979
 20
1772.77016004771
 10
82.385261282979
 20
1769.77016004771
 10
102.385261282981
 20
1769.77016004771
 10
102.385261282981
 20
1772.77016004771
 10
127.385261282981
 20
1772.77016004771
 10
127.385261282981
 20
1769.77016004771
 10
235.885261282979
 20
1769.77016004771
 10
235.885261282979
 20
1772.77016004771
 10
260.885261282979
 20
1772.77016004771
 10
260.885261282979
 20
1769.77016004771
 10
280.885261282979
 20
1769.77016004771
 10
280.885261282979
 20
1772.77016004771
 10
305.885261282979
 20
1772.77016004771
 10
305.885261282979
 20
1769.77016004771
 10
414.385261282976
 20
1769.77016004771
 10
414.385261282976
 20
1772.77016004771
 10
439.385261282976
 20
1772.77016004771
 10
439.385261282976
 20
1769.77016004771
 10
459.385261282976
 20
1769.77016004771
 10
459.385261282976
 20
1772.77016004771
 10
484.385261282983
 20
1772.77016004771
 10
484.385261282983
 20
1761.77016004771
 10
487.385261282983
 20
1761.77016004771
 10
487.385261282983
 20
1736.77016004771
 10
484.385261282983
 20
1736.77016004771
 10
484.385261282983
 20
1716.77016004771
 10
487.385261282983
 20
1716.77016004771
 10
487.385261282982
 20
1691.77016004771
 10
484.385261282982
 20
1691.77016004771
 10
484.385261282982
 20
1636.25439650465
 10
487.385261282982
 20
1636.25439650465
 10
487.385261282982
 20
1626.25439650465
 10
487.385261282982
 20
1616.25439650465
 10
484.385261282982
 20
1616.25439650465
 10
484.385261282983
 20
1560.75439650465
 10
487.385261282983
 20
1560.75439650465
 10
487.385261282984
 20
1535.75439650465
 10
484.385261282984
 20
1535.75439650465
 10
484.385261282985
 20
1515.75439650465
 10
487.385261282984
 20
1515.75439650465
 10
487.385261282985
 20
1490.75439650465
 10
484.385261282985
 20
1490.75439650465
 10
484.385261282985
 20
1479.75439650465
 10
459.385261282985
 20
1479.75439650465
 10
459.385261282985
 20
1482.75439650465
 10
439.385261282985
 20
1482.75439650465
 10
439.385261282985
 20
1479.75439650465
 10
414.385261282986
 20
1479.75439650465
 10
414.385261282986
 20
1482.75439650465
 10
305.885261282988
 20
1482.75439650465
 10
305.885261282988
 20
1479.75439650465
 10
280.885261282988
 20
1479.75439650465
 10
280.885261282988
 20
1482.75439650465
 10
260.885261282988
 20
1482.75439650465
 10
260.885261282988
 20
1479.75439650465
 10
235.885261282988
 20
1479.75439650465
 10
235.885261282988
 20
1482.75439650465
 10
127.38526128299
 20
1482.75439650465
 10
127.38526128299
 20
1479.75439650465
 10
102.38526128299
 20
1479.75439650465
 10
102.38526128299
 20
1482.75439650465
 10
82.3852612829882
 20
1482.75439650465
 10
82.3852612829881
 20
1479.75439650465
 10
57.3852612829901
 20
1479.75439650465
 10
57.3852612829897
 20
1490.75439650465
 10
54.3852612829897
 20
1490.75439650465
 10
54.3852612829894
 20
1515.75439650465
 10
57.3852612829894
 20
1515.75439650465
 10
57.3852612829892
 20
1535.75439650465
 10
54.3852612829892
 20
1535.75439650465
 10
54.385261282988
 20
1560.75439650465
 10
57.385261282988
 20
1560.75439650465
 10
57.3852612829873
 20
1616.25439650465
 10
54.3852612829873
 20
1616.25439650465
 10
54.3852612829872
 20
1636.25439650465
 10
57.3852612829872
 20
1636.25439650465
 10
57.3852612829865
 20
1691.77016004771
 10
54.3852612829865
 20
1691.77016004771
 10
54.3852612829881
 20
1716.77016004771
 10
57.3852612829881
 20
1716.77016004771
 10
57.3852612829879
 20
1736.77016004771
 10
54.3852612829879
 20
1736.77016004771
 10
54.385261282988
 20
1761.77016004771
 10
57.385261282988
 20
1761.77016004771
 10
57.3852612829877
 20
1772.77016004771
 10
69.88526128298335
 20
1772.77016004771
  0
LWPOLYLINE
  5
53
100
AcDbEntity
  8
Back
  6
ByLayer
 62
  256
370
   -1
100
AcDbPolyline
 90
   81
 70
    0
 43
0
 10
484.385261282984
 20
1814.68257963079
 10
484.385261282979
 20
1785.7701600477
 10
476.385261282979
 20
1785.7701600477
 10
476.385261282979
 20
1782.7701600477
 10
451.385261282979
 20
1782.7701600477
 10
451.385261282979
 20
1785.7701600477
 10
431.385261282979
 20
1785.7701600477
 10
431.385261282979
 20
1782.7701600477
 10
406.385261282979
 20
1782.7701600477
 10
406.385261282979
 20
1785.7701600477
 10
305.885261282983
 20
1785.77016004771
 10
305.885261282983
 20
1782.77016004771
 10
280.885261282983
 20
1782.77016004771
 10
280.885261282983
 20
1785.77016004771
 10
260.885261282983
 20
1785.77016004771
 10
260.885261282983
 20
1782.77016004771
 10
235.885261282982
 20
1782.77016004771
 10
235.885261282983
 20
1785.77016004771
 10
135.385261282983
 20
1785.77016004771
 10
135.385261282983
 20
1782.77016004771
 10
110.385261282983
 20
1782.77016004771
 10
110.385261282983
 20
1785.77016004771
 10
90.38526128298319
 20
1785.77016004771
 10
90.38526128298319
 20
1782.77016004771
 10
65.38526128298319
 20
1782.77016004771
 10
65.38526128298319
 20
1785.77016004771
 10
57.3852612829832
 20
1785.77016004771
 10
57.3852612829882
 20
1814.68257963079
 10
54.385261282988
 20
1814.68257963079
 10
54.3852612829876
 20
1839.68257963079
 10
57.3852612829879
 20
1839.68257963079
 10
57.3852612829893
 20
1859.68257963079
 10
54.3852612829893
 20
1859.6825796308
 10
54.385261282988
 20
1884.68257963079
 10
57.3852612829879
 20
1884.68257963079
 10
57.3852612829897
 20
1961.40797934833
 10
54.3852612829895
 20
1961.40797934833
 10
54.3852612829938
 20
1986.40801742555
 10
57.3852612829938
 20
1986.40801742555
 10
57.3852612829918
 20
2006.40804788733
 10
54.3852612829916
 20
2006.40804788734
 10
54.3852612829916
 20
2031.40808596456
 10
57.3852612829918
 20
2031.40808596456
 10
57.3852612829814
 20
2039.91293957628
 10
82.3852612829814
 20
2039.91293957628
 10
82.3852612829814
 20
2042.91293957628
 10
102.385261282983
 20
2042.91293957628
 10
102.385261282982
 20
2039.91293957628
 10
127.385261282981
 20
2039.91293957628
 10
127.385261282983
 20
2042.91293957628
 10
235.885261282981
 20
2042.91293957628
 10
235.885261282981
 20
2039.91293957628
 10
260.885261282982
 20
2039.91293957628
 10
260.885261282982
 20
2042.91293957628
 10
280.885261282981
 20
2042.91293957628
 10
280.885261282981
 20
2039.91293957628
 10
305.885261282982
 20
2039.91293957628
 10
305.885261282982
 20
2042.91293957628
 10
414.385261282979
 20
2042.91293957627
 10
414.385261282979
 20
2039.91293957628
 10
439.385261282979
 20
2039.91293957628
 10
439.385261282979
 20
2042.91293957627
 10
459.385261282979
 20
2042.91293957628
 10
459.385261282979
 20
2039.91293957628
 10
484.385261282979
 20
2039.91293957628
 10
484.385261282988
 20
2031.40808596455
 10
487.385261282987
 20
2031.40808596455
 10
487.385261282987
 20
2006.40804788733
 10
484.385261282988
 20
2006.40804788733
 10
484.38526128299
 20
1986.40801742555
 10
487.38526128299
 20
1986.40801742555
 10
487.385261282985
 20
1961.40797934832
 10
484.385261282985
 20
1961.40797934832
 10
484.385261282984
 20
1884.68257963079
 10
487.385261282984
 20
1884.68257963079
 10
487.385261282985
 20
1859.68257963079
 10
484.385261282985
 20
1859.68257963079
 10
484.385261282985
 20
1839.68257963079
 10
487.385261282983
 20
1839.68257963079
 10
487.385261282984
 20
1814.68257963079
 10
484.385261282984
 20
1814.68257963079
  0
LWPOLYLINE
  5
54
100
AcDbEntity
  8
Back
  6
ByLayer
 62
  256
370
   -1
100
AcDbPolyline
 90
   27
 70
    0
 43
0
 10
308.385261282982
 20
1825.77016004771
 10
233.385261282981
 20
1825.77016004771
 10
230.1500232192
 20
1825.34423287632
 10
227.135261282982
 20
1824.09547759501
 10
224.54642651815
 20
1822.10899481254
 10
222.559943735676
 20
1819.52016004771
 10
221.311188454368
 20
1816.50539811149
 10
220.885261282982
 20
1813.27016004771
 10
221.311188454368
 20
1810.03492198393
 10
222.559943735676
 20
1807.02016004771
 10
224.54642651815
 20
1804.43132528288
 10
227.135261282982
 20
1802.4448425004
 10
230.150023219201
 20
1801.1960872191
 10
233.385261282982
 20
1800.77016004771
 10
308.385261282982
 20
1800.77016004771
 10
311.620499346764
 20
1801.19608721909
 10
314.635261282982
 20
1802.4448425004
 10
317.224096047814
 20
1804.43132528288
 10
319.210578830288
 20
1807.02016004771
 10
320.459334111596
 20
1810.03492198393
 10
320.885261282982
 20
1813.27016004771
 10
320.459334111596
 20
1816.50539811149
 10
319.210578830288
 20
1819.52016004771
 10
317.224096047814
 20
1822.10899481254
 10
314.635261282982
 20
1824.09547759501
 10
311.620499346764
 20
1825.34423287632
 10
308.385261282982
 20
1825.77016004771
  0
LWPOLYLINE
  5
55
100
AcDbEntity
  8
Back
  6
ByLayer
 62
  256
370
   -1
100
AcDbPolyline
 90
   27
 70
    0
 43
0
 10
233.385261282981
 20
1825.77016004771
 10
308.385261282982
 20
1825.77016004771
 10
311.620499346764
 20
1825.34423287632
 10
314.635261282982
 20
1824.09547759501
 10
317.224096047814
 20
1822.10899481254
 10
319.210578830288
 20
1819.52016004771
 10
320.459334111596
 20
1816.50539811149
 10
320.885261282982
 20
1813.27016004771
 10
320.459334111596
 20
1810.03492198393
 10
319.210578830288
 20
1807.02016004771
 10
317.224096047814
 20
1804.43132528288
 10
314.635261282982
 20
1802.4448425004
 10
311.620499346764
 20
1801.19608721909
 10
308.385261282982
 20
1800.77016004771
 10
233.385261282982
 20
1800.77016004771
 10
230.150023219201
 20
1801.1960872191
 10
227.135261282982
 20
1802.4448425004
 10
224.54642651815
 20
1804.43132528288
 10
222.559943735676
 20
1807.02016004771
 10
221.311188454368
 20
1810.03492198393
 10
220.885261282982
 20
1813.27016004771
 10
221.311188454368
 20
1816.50539811149
 10
222.559943735676
 20
1819.52016004771
 10
224.54642651815
 20
1822.10899481254
 10
227.135261282982
 20
1824.09547759501
 10
230.1500232192
 20
1825.34423287632
 10
233.385261282981
 20
1825.77016004771
  0
LWPOLYLINE
  5
56
100
AcDbEntity
  8
Sides
  6
ByLayer
 62
  256
370
   -1
100
AcDbPolyline
 90
   25
 70
    0
 43
0
 10
347.548275521511
 20
2213.81521345051
 10
347.783218980104
 20
2213.20634324601
 10
347.852569729557
 20
2212.55741194903
 10
347.751601630903
 20
2211.91264315503
 10
347.487195493208
 20
2211.3159767918
 10
347.077370157803
 20
2210.80807468596
 10
346.550054544028
 20
2210.42354952667
 10
345.941184339532
 20
2210.18860606808
 10
345.292253042546
 20
2210.11925531862
 10
344.647484248549
 20
2210.22022341728
 10
344.050817885321
 20
2210.48462955497
 10
343.542915779479
 20
2210.89445489038
 10
343.158390620188
 20
2211.42177050415
 10
342.923447161596
 20
2212.03064070865
 10
342.854096412142
 20
2212.67957200563
 10
342.955064510796
 20
2213.32434079963
 10
343.219470648492
 20
2213.92100716286
 10
343.629295983896
 20
2214.4289092687
 10
344.156611597671
 20
2214.81343442799
 10
344.765481802167
 20
2215.04837788658
 10
345.414413099154
 20
2215.11772863604
 10
346.059181893151
 20
2215.01676053738
 10
346.655848256378
 20
2214.75235439969
 10
347.16375036222
 20
2214.34252906428
 10
347.548275521511
 20
2213.81521345051
  0
LWPOLYLINE
  5
57
100
AcDbEntity
  8
Sides
  6
ByLayer
 62
  256
370
   -1
100
AcDbPolyline
 90
   25
 70
    0
 43
0
 10
337.233061754958
 20
2203.29790135533
 10
336.636394912783
 20
2203.56230770527
 10
336.128492399245
 20
2203.97213336964
 10
335.743966931293
 20
2204.49944940669
 10
335.50902328411
 20
2205.10832009993
 10
335.439672478989
 20
2205.75725191782
 10
335.540640658691
 20
2206.40202122938
 10
335.805047008626
 20
2206.99868807155
 10
336.214872673
 20
2207.50659058509
 10
336.742188710054
 20
2207.89111605304
 10
337.351059403293
 20
2208.12605970022
 10
337.999991221181
 20
2208.19541050535
 10
338.644760532737
 20
2208.09444232564
 10
339.241427374912
 20
2207.83003597571
 10
339.74932988845
 20
2207.42021031134
 10
340.133855356402
 20
2206.89289427428
 10
340.368799003585
 20
2206.28402358104
 10
340.438149808706
 20
2205.63509176315
 10
340.337181629005
 20
2204.9903224516
 10
340.072775279069
 20
2204.39365560942
 10
339.662949614695
 20
2203.88575309588
 10
339.135633577641
 20
2203.50122762793
 10
338.526762884402
 20
2203.26628398075
 10
337.877831066515
 20
2203.19693317563
 10
337.233061754958
 20
2203.29790135533
  0
LWPOLYLINE
  5
58
100
AcDbEntity
  8
Sides
  6
ByLayer
 62
  256
370
   -1
100
AcDbPolyline
 90
   25
 70
    0
 43
0
 10
249.474746989004
 20
2124.34799048289
 10
250.021290992868
 20
2123.99133503026
 10
250.456902737725
 20
2123.50537632029
 10
250.751896003043
 20
2122.92323163599
 10
250.886167485292
 20
2122.28457317554
 10
250.85056680485
 20
2121.63292445759
 10
250.647520089256
 20
2121.01269426537
 10
250.290864636628
 20
2120.46615026151
 10
249.804905926661
 20
2120.03053851665
 10
249.222761242354
 20
2119.73554525133
 10
248.584102781904
 20
2119.60127376908
 10
247.932454063957
 20
2119.63687444953
 10
247.31222387174
 20
2119.83992116512
 10
246.765679867876
 20
2120.19657661775
 10
246.330068123019
 20
2120.68253532771
 10
246.035074857701
 20
2121.26468001202
 10
245.900803375452
 20
2121.90333847247
 10
245.936404055894
 20
2122.55498719042
 10
246.139450771488
 20
2123.17521738264
 10
246.496106224116
 20
2123.7217613865
 10
246.982064934083
 20
2124.15737313136
 10
247.56420961839
 20
2124.45236639668
 10
248.20286807884
 20
2124.58663787892
 10
248.854516796787
 20
2124.55103719848
 10
249.474746989004
 20
2124.34799048289
  0
LWPOLYLINE
  5
59
100
AcDbEntity
  8
Sides
  6
ByLayer
 62
  256
370
   -1
100
AcDbPolyline
 90
   25
 70
    0
 43
0
 10
436.095483445097
 20
2294.02576033052
 10
435.486611735325
 20
2293.79081629109
 10
434.837678834021
 20
2293.72146537019
 10
434.192908445998
 20
2293.82243371846
 10
433.596240607665
 20
2294.08684050983
 10
433.088337246165
 20
2294.49666685843
 10
432.703811136233
 20
2295.02398377585
 10
432.468867096803
 20
2295.63285548563
 10
432.399516175898
 20
2296.28178838693
 10
432.50048452417
 20
2296.92655877495
 10
432.764891315542
 20
2297.52322661329
 10
433.174717664135
 20
2298.03112997479
 10
433.702034581563
 20
2298.41565608472
 10
434.310906291335
 20
2298.65060012415
 10
434.959839192639
 20
2298.71995104505
 10
435.604609580662
 20
2298.61898269678
 10
436.201277418995
 20
2298.35457590541
 10
436.709180780496
 20
2297.94474955682
 10
437.093706890427
 20
2297.41743263939
 10
437.328650929857
 20
2296.80856092961
 10
437.398001850763
 20
2296.15962802831
 10
437.297033502491
 20
2295.51485764029
 10
437.032626711118
 20
2294.91818980195
 10
436.622800362525
 20
2294.41028644045
 10
436.095483445097
 20
2294.02576033052
  0
LWPOLYLINE
  5
5A
100
AcDbEntity
  8
Sides
  6
ByLayer
 62
  256
370
   -1
100
AcDbPolyline
 90
   59
 70
    0
 43
0
 10
522.219210045301
 20
2256.17112096456
 10
525.2192100453
 20
2256.17112096456
 10
525.219210045301
 20
2236.17112096456
 10
522.219210045301
 20
2236.17112096456
 10
522.219210045301
 20
2211.17112096456
 10
525.219210045301
 20
2211.17112096456
 10
525.219210045301
 20
2134.44572124703
 10
522.219210045301
 20
2134.43350392986
 10
522.219210045301
 20
2109.43346585263
 10
525.219210045301
 20
2109.4456831698
 10
525.219210045301
 20
2089.44565270802
 10
522.219210045301
 20
2089.43343539085
 10
522.219210045301
 20
2064.43339731362
 10
525.219210045301
 20
2064.44561463079
 10
525.219210045301
 20
2052.94076101907
 10
514.219210045301
 20
2052.94076101907
 10
514.219210045301
 20
2056.41942248072
 10
489.219210045301
 20
2056.37578920511
 10
489.219210045301
 20
2052.94076101907
 10
469.219210045301
 20
2052.94076101907
 10
469.219210045301
 20
2056.34088258463
 10
444.219210045301
 20
2056.29724930903
 10
444.219210045301
 20
2052.94076101907
 10
388.703446502238
 20
2052.94076101907
 10
388.703446502238
 20
2056.20035592458
 10
368.703446502237
 20
2056.1654493041
 10
368.703446502237
 20
2052.94076101907
 10
313.203446502238
 20
2052.94076101907
 10
313.203446502238
 20
2056.06858343226
 10
288.203446502238
 20
2056.02495015666
 10
288.203446502238
 20
2052.94076101907
 10
268.203446502238
 20
2052.94076101907
 10
268.203446502238
 20
2055.99004353617
 10
243.203446502238
 20
2055.94641026057
 10
243.203446502238
 20
2052.94076101907
 10
232.203446502238
 20
2052.94076101907
 10
232.203446502238
 20
2063.93261205178
 10
235.29068192464
 20
2063.93261205178
 10
235.29068192464
 20
2078.95039427162
 10
232.203446502237
 20
2078.95039427162
 10
232.203446502237
 20
2098.9504247334
 10
235.229647830737
 20
2098.96268778056
 10
235.229647830737
 20
2113.92031863437
 10
232.203446502237
 20
2113.92031863437
 10
232.203446502237
 20
2128.92034148071
 10
235.203446502237
 20
2128.93255879787
 10
429.2192100453
 20
2310.07132323047
 10
444.2192100453
 20
2310.09750319584
 10
444.2192100453
 20
2313.07132323047
 10
469.2192100453
 20
2313.07132323047
 10
469.219149121832
 20
2310.14113636511
 10
489.2192100453
 20
2310.14096054401
 10
489.2192100453
 20
2313.07132323047
 10
514.2192100453
 20
2313.07132323047
 10
514.2192100453
 20
2310.07132323048
 10
525.2192100453
 20
2310.07132323048
 10
525.2192100453
 20
2281.17112096456
 10
522.2192100453
 20
2281.17112096456
 10
522.219210045301
 20
2256.17112096456
  0
LWPOLYLINE
  5
5B
100
AcDbEntity
  8
Sides
  6
ByLayer
 62
  256
370
   -1
100
AcDbPolyline
 90
   25
 70
    0
 43
0
 10
347.783218980104
 20
2213.20634324601
 10
347.548275521511
 20
2213.81521345051
 10
347.16375036222
 20
2214.34252906428
 10
346.655848256378
 20
2214.75235439969
 10
346.059181893151
 20
2215.01676053738
 10
345.414413099154
 20
2215.11772863604
 10
344.765481802167
 20
2215.04837788658
 10
344.156611597671
 20
2214.81343442799
 10
343.629295983896
 20
2214.4289092687
 10
343.219470648492
 20
2213.92100716286
 10
342.955064510796
 20
2213.32434079963
 10
342.854096412142
 20
2212.67957200563
 10
342.923447161596
 20
2212.03064070865
 10
343.158390620188
 20
2211.42177050415
 10
343.542915779479
 20
2210.89445489038
 10
344.050817885321
 20
2210.48462955497
 10
344.647484248549
 20
2210.22022341728
 10
345.292253042546
 20
2210.11925531862
 10
345.941184339532
 20
2210.18860606808
 10
346.550054544028
 20
2210.42354952667
 10
347.077370157803
 20
2210.80807468596
 10
347.487195493208
 20
2211.3159767918
 10
347.751601630903
 20
2211.91264315503
 10
347.852569729557
 20
2212.55741194903
 10
347.783218980104
 20
2213.20634324601
  0
LWPOLYLINE
  5
5C
100
AcDbEntity
  8
Sides
  6
ByLayer
 62
  256
370
   -1
100
AcDbPolyline
 90
   25
 70
    0
 43
0
 10
336.636394912783
 20
2203.56230770527
 10
337.233061754958
 20
2203.29790135533
 10
337.877831066515
 20
2203.19693317563
 10
338.526762884402
 20
2203.26628398075
 10
339.135633577641
 20
2203.50122762793
 10
339.662949614695
 20
2203.88575309588
 10
340.072775279069
 20
2204.39365560942
 10
340.337181629005
 20
2204.9903224516
 10
340.438149808706
 20
2205.63509176315
 10
340.368799003585
 20
2206.28402358104
 10
340.133855356402
 20
2206.89289427428
 10
339.74932988845
 20
2207.42021031134
 10
339.241427374912
 20
2207.83003597571
 10
338.644760532737
 20
2208.09444232564
 10
337.999991221181
 20
2208.19541050535
 10
337.351059403293
 20
2208.12605970022
 10
336.742188710054
 20
2207.89111605304
 10
336.214872673
 20
2207.50659058509
 10
335.805047008626
 20
2206.99868807155
 10
335.540640658691
 20
2206.40202122938
 10
335.439672478989
 20
2205.75725191782
 10
335.50902328411
 20
2205.10832009993
 10
335.743966931293
 20
2204.49944940669
 10
336.128492399245
 20
2203.97213336964
 10
336.636394912783
 20
2203.56230770527
  0
LWPOLYLINE
  5
5D
100
AcDbEntity
  8
Sides
  6
ByLayer
 62
  256
370
   -1
100
AcDbPolyline
 90
   25
 70
    0
 43
0
 10
250.021290992868
 20
2123.99133503026
 10
249.474746989004
 20
2124.34799048289
 10
248.854516796787
 20
2124.55103719848
 10
248.20286807884
 20
2124.58663787892
 10
247.56420961839
 20
2124.45236639668
 10
246.982064934083
 20
2124.15737313136
 10
246.496106224116
 20
2123.7217613865
 10
246.139450771488
 20
2123.17521738264
 10
245.936404055894
 20
2122.55498719042
 10
245.900803375452
 20
2121.90333847247
 10
246.035074857701
 20
2121.26468001202
 10
246.330068123019
 20
2120.68253532771
 10
246.765679867876
 20
2120.19657661775
 10
247.31222387174
 20
2119.83992116512
 10
247.932454063957
 20
2119.63687444953
 10
248.584102781904
 20
2119.60127376908
 10
249.222761242354
 20
2119.73554525133
 10
249.804905926661
 20
2120.03053851665
 10
250.290864636628
 20
2120.46615026151
 10
250.647520089256
 20
2121.01269426537
 10
250.85056680485
 20
2121.63292445759
 10
250.886167485292
 20
2122.28457317554
 10
250.751896003043
 20
2122.92323163599
 10
250.456902737725
 20
2123.50537632029
 10
250.021290992868
 20
2123.99133503026
  0
LWPOLYLINE
  5
5E
100
AcDbEntity
  8
Sides
  6
ByLayer
 62
  256
370
   -1
100
AcDbPolyline
 90
   25
 70
    0
 43
0
 10
435.486611735325
 20
2293.79081629109
 10
436.095483445097
 20
2294.02576033052
 10
436.622800362525
 20
2294.41028644045
 10
437.032626711118
 20
2294.91818980195
 10
437.297033502491
 20
2295.51485764029
 10
437.398001850763
 20
2296.15962802831
 10
437.328650929857
 20
2296.80856092961
 10
437.093706890427
 20
2297.41743263939
 10
436.709180780496
 20
2297.94474955682
 10
436.201277418995
 20
2298.35457590541
 10
435.604609580662
 20
2298.61898269678
 10
434.959839192639
 20
2298.71995104505
 10
434.310906291335
 20
2298.65060012415
 10
433.702034581563
 20
2298.41565608472
 10
433.174717664135
 20
2298.03112997479
 10
432.764891315542
 20
2297.52322661329
 10
432.50048452417
 20
2296.92655877495
 10
432.399516175898
 20
2296.28178838693
 10
432.468867096803
 20
2295.63285548563
 10
432.703811136233
 20
2295.02398377585
 10
433.088337246165
 20
2294.49666685843
 10
433.596240607665
 20
2294.08684050983
 10
434.192908445998
 20
2293.82243371846
 10
434.837678834021
 20
2293.72146537019
 10
435.486611735325
 20
2293.79081629109
  0
LWPOLYLINE
  5
5F
100
AcDbEntity
  8
Sides
  6
ByLayer
 62
  256
370
   -1
100
AcDbPolyline
 90
   25
 70
    0
 43
0
 10
231.676945655685
 20
2152.16904935625
 10
231.442002197093
 20
2152.77791956074
 10
231.372651447639
 20
2153.42685085773
 10
231.473619546293
 20
2154.07161965173
 10
231.738025683989
 20
2154.66828601496
 10
232.147851019394
 20
2155.1761881208
 10
232.675166633168
 20
2155.56071328009
 10
233.284036837664
 20
2155.79565673868
 10
233.932968134651
 20
2155.86500748813
 10
234.577736928648
 20
2155.76403938948
 10
235.174403291875
 20
2155.49963325178
 10
235.682305397717
 20
2155.08980791638
 10
236.066830557008
 20
2154.56249230261
 10
236.301774015601
 20
2153.95362209811
 10
236.371124765054
 20
2153.30469080112
 10
236.2701566664
 20
2152.65992200713
 10
236.005750528705
 20
2152.0632556439
 10
235.5959251933
 20
2151.55535353806
 10
235.068609579525
 20
2151.17082837876
 10
234.459739375029
 20
2150.93588492017
 10
233.810808078043
 20
2150.86653417072
 10
233.166039284046
 20
2150.96750226937
 10
232.569372920818
 20
2151.23190840707
 10
232.061470814976
 20
2151.64173374247
 10
231.676945655685
 20
2152.16904935625
  0
LWPOLYLINE
  5
60
100
AcDbEntity
  8
Sides
  6
ByLayer
 62
  256
370
   -1
100
AcDbPolyline
 90
   25
 70
    0
 43
0
 10
241.992159422239
 20
2162.68636145143
 10
242.588826264414
 20
2162.42195510149
 10
243.096728777952
 20
2162.01212943712
 10
243.481254245903
 20
2161.48481340006
 10
243.716197893086
 20
2160.87594270682
 10
243.785548698208
 20
2160.22701088894
 10
243.684580518506
 20
2159.58224157738
 10
243.42017416857
 20
2158.9855747352
 10
243.010348504196
 20
2158.47767222167
 10
242.483032467143
 20
2158.09314675372
 10
241.874161773903
 20
2157.85820310653
 10
241.225229956016
 20
2157.78885230141
 10
240.580460644459
 20
2157.88982048111
 10
239.983793802284
 20
2158.15422683105
 10
239.475891288746
 20
2158.56405249542
 10
239.091365820794
 20
2159.09136853248
 10
238.856422173611
 20
2159.70023922572
 10
238.78707136849
 20
2160.3491710436
 10
238.888039548192
 20
2160.99394035516
 10
239.152445898127
 20
2161.59060719733
 10
239.562271562501
 20
2162.09850971087
 10
240.089587599555
 20
2162.48303517882
 10
240.698458292795
 20
2162.71797882601
 10
241.347390110682
 20
2162.78732963113
 10
241.992159422239
 20
2162.68636145143
  0
LWPOLYLINE
  5
61
100
AcDbEntity
  8
Sides
  6
ByLayer
 62
  256
370
   -1
100
AcDbPolyline
 90
   25
 70
    0
 43
0
 10
329.750474188193
 20
2241.63627232387
 10
329.203930184328
 20
2241.9929277765
 10
328.768318439472
 20
2242.47888648646
 10
328.473325174153
 20
2243.06103117077
 10
328.339053691904
 20
2243.69968963122
 10
328.374654372346
 20
2244.35133834917
 10
328.57770108794
 20
2244.97156854138
 10
328.934356540569
 20
2245.51811254525
 10
329.420315250536
 20
2245.95372429011
 10
330.002459934843
 20
2246.24871755542
 10
330.641118395293
 20
2246.38298903767
 10
331.29276711324
 20
2246.34738835723
 10
331.912997305456
 20
2246.14434164164
 10
332.459541309321
 20
2245.78768618901
 10
332.895153054177
 20
2245.30172747904
 10
333.190146319496
 20
2244.71958279474
 10
333.324417801745
 20
2244.08092433429
 10
333.288817121303
 20
2243.42927561634
 10
333.085770405709
 20
2242.80904542412
 10
332.729114953081
 20
2242.26250142026
 10
332.243156243113
 20
2241.8268896754
 10
331.661011558807
 20
2241.53189641008
 10
331.022353098356
 20
2241.39762492783
 10
330.370704380409
 20
2241.43322560827
 10
329.750474188193
 20
2241.63627232387
  0
LWPOLYLINE
  5
62
100
AcDbEntity
  8
Sides
  6
ByLayer
 62
  256
370
   -1
100
AcDbPolyline
 90
   25
 70
    0
 43
0
 10
143.129737732099
 20
2071.95850247623
 10
143.738609441871
 20
2072.19344651566
 10
144.387542343175
 20
2072.26279743657
 10
145.032312731198
 20
2072.1618290883
 10
145.628980569531
 20
2071.89742229693
 10
146.136883931032
 20
2071.48759594833
 10
146.521410040963
 20
2070.9602790309
 10
146.756354080393
 20
2070.35140732113
 10
146.825705001298
 20
2069.70247441983
 10
146.724736653027
 20
2069.05770403181
 10
146.460329861654
 20
2068.46103619347
 10
146.050503513061
 20
2067.95313283197
 10
145.523186595633
 20
2067.56860672204
 10
144.914314885861
 20
2067.33366268261
 10
144.265381984557
 20
2067.26431176171
 10
143.620611596534
 20
2067.36528010998
 10
143.023943758201
 20
2067.62968690135
 10
142.5160403967
 20
2068.03951324994
 10
142.131514286769
 20
2068.56683016737
 10
141.896570247339
 20
2069.17570187714
 10
141.827219326434
 20
2069.82463477845
 10
141.928187674706
 20
2070.46940516647
 10
142.192594466078
 20
2071.0660730048
 10
142.602420814671
 20
2071.5739763663
 10
143.129737732099
 20
2071.95850247623
  0
LWPOLYLINE
  5
63
100
AcDbEntity
  8
Sides
  6
ByLayer
 62
  256
370
   -1
100
AcDbPolyline
 90
   59
 70
    0
 43
0
 10
57.0060111318957
 20
2109.8131418422
 10
54.0060111318958
 20
2109.8131418422
 10
54.0060111318957
 20
2129.8131418422
 10
57.0060111318957
 20
2129.8131418422
 10
57.0060111318957
 20
2154.8131418422
 10
54.0060111318958
 20
2154.8131418422
 10
54.0060111318958
 20
2231.53854155973
 10
57.0060111318957
 20
2231.5507588769
 10
57.0060111318957
 20
2256.55079695413
 10
54.0060111318958
 20
2256.53857963696
 10
54.0060111318958
 20
2276.53861009874
 10
57.0060111318957
 20
2276.55082741591
 10
57.0060111318957
 20
2301.55086549313
 10
54.0060111318958
 20
2301.53864817596
 10
54.0060111318958
 20
2313.04350178769
 10
65.0060111318957
 20
2313.04350178769
 10
65.0060111318957
 20
2309.56484032604
 10
90.0060111318958
 20
2309.60847360164
 10
90.0060111318958
 20
2313.04350178769
 10
110.006011131896
 20
2313.04350178769
 10
110.006011131896
 20
2309.64338022213
 10
135.006011131896
 20
2309.68701349773
 10
135.006011131896
 20
2313.04350178769
 10
190.521774674959
 20
2313.04350178769
 10
190.521774674959
 20
2309.78390688217
 10
210.521774674959
 20
2309.81881350266
 10
210.521774674959
 20
2313.04350178769
 10
266.021774674959
 20
2313.04350178769
 10
266.021774674959
 20
2309.9156793745
 10
291.021774674959
 20
2309.9593126501
 10
291.021774674959
 20
2313.04350178769
 10
311.021774674959
 20
2313.04350178769
 10
311.021774674959
 20
2309.99421927058
 10
336.021774674959
 20
2310.03785254619
 10
336.021774674959
 20
2313.04350178769
 10
347.021774674959
 20
2313.04350178769
 10
347.021774674959
 20
2302.05165075498
 10
343.934539252556
 20
2302.05165075498
 10
343.934539252556
 20
2287.03386853514
 10
347.021774674959
 20
2287.03386853514
 10
347.021774674959
 20
2267.03383807336
 10
343.995573346459
 20
2267.0215750262
 10
343.995573346459
 20
2252.06394417239
 10
347.021774674959
 20
2252.06394417239
 10
347.021774674959
 20
2237.06392132605
 10
344.021774674959
 20
2237.05170400888
 10
150.006011131896
 20
2055.91293957628
 10
135.006011131896
 20
2055.88675961092
 10
135.006011131896
 20
2052.91293957628
 10
110.006011131896
 20
2052.91293957628
 10
110.006072055364
 20
2055.84312644165
 10
90.0060111318958
 20
2055.84330226275
 10
90.0060111318958
 20
2052.91293957628
 10
65.0060111318957
 20
2052.91293957628
 10
65.0060111318957
 20
2055.91293957628
 10
54.0060111318958
 20
2055.91293957628
 10
54.0060111318958
 20
2084.8131418422
 10
57.0060111318957
 20
2084.8131418422
 10
57.0060111318957
 20
2109.8131418422
  0
LWPOLYLINE
  5
64
100
AcDbEntity
  8
Sides
  6
ByLayer
 62
  256
370
   -1
100
AcDbPolyline
 90
   25
 70
    0
 43
0
 10
231.442002197093
 20
2152.77791956074
 10
231.676945655685
 20
2152.16904935625
 10
232.061470814976
 20
2151.64173374247
 10
232.569372920818
 20
2151.23190840707
 10
233.166039284046
 20
2150.96750226937
 10
233.810808078043
 20
2150.86653417072
 10
234.459739375029
 20
2150.93588492017
 10
235.068609579525
 20
2151.17082837876
 10
235.5959251933
 20
2151.55535353806
 10
236.005750528705
 20
2152.0632556439
 10
236.2701566664
 20
2152.65992200713
 10
236.371124765054
 20
2153.30469080112
 10
236.301774015601
 20
2153.95362209811
 10
236.066830557008
 20
2154.56249230261
 10
235.682305397717
 20
2155.08980791638
 10
235.174403291875
 20
2155.49963325178
 10
234.577736928648
 20
2155.76403938948
 10
233.932968134651
 20
2155.86500748813
 10
233.284036837664
 20
2155.79565673868
 10
232.675166633168
 20
2155.56071328009
 10
232.147851019394
 20
2155.1761881208
 10
231.738025683989
 20
2154.66828601496
 10
231.473619546293
 20
2154.07161965173
 10
231.372651447639
 20
2153.42685085773
 10
231.442002197093
 20
2152.77791956074
  0
LWPOLYLINE
  5
65
100
AcDbEntity
  8
Sides
  6
ByLayer
 62
  256
370
   -1
100
AcDbPolyline
 90
   25
 70
    0
 43
0
 10
242.588826264414
 20
2162.42195510149
 10
241.992159422239
 20
2162.68636145143
 10
241.347390110682
 20
2162.78732963113
 10
240.698458292795
 20
2162.71797882601
 10
240.089587599555
 20
2162.48303517882
 10
239.562271562501
 20
2162.09850971087
 10
239.152445898127
 20
2161.59060719733
 10
238.888039548192
 20
2160.99394035516
 10
238.78707136849
 20
2160.3491710436
 10
238.856422173611
 20
2159.70023922572
 10
239.091365820794
 20
2159.09136853248
 10
239.475891288746
 20
2158.56405249542
 10
239.983793802284
 20
2158.15422683105
 10
240.580460644459
 20
2157.88982048111
 10
241.225229956016
 20
2157.78885230141
 10
241.874161773903
 20
2157.85820310653
 10
242.483032467143
 20
2158.09314675372
 10
243.010348504196
 20
2158.47767222167
 10
243.42017416857
 20
2158.9855747352
 10
243.684580518506
 20
2159.58224157738
 10
243.785548698208
 20
2160.22701088894
 10
243.716197893086
 20
2160.87594270682
 10
243.481254245903
 20
2161.48481340006
 10
243.096728777952
 20
2162.01212943712
 10
242.588826264414
 20
2162.42195510149
  0
LWPOLYLINE
  5
66
100
AcDbEntity
  8
Sides
  6
ByLayer
 62
  256
370
   -1
100
AcDbPolyline
 90
   25
 70
    0
 43
0
 10
329.203930184328
 20
2241.9929277765
 10
329.750474188193
 20
2241.63627232387
 10
330.370704380409
 20
2241.43322560827
 10
331.022353098356
 20
2241.39762492783
 10
331.661011558807
 20
2241.53189641008
 10
332.243156243113
 20
2241.8268896754
 10
332.729114953081
 20
2242.26250142026
 10
333.085770405709
 20
2242.80904542412
 10
333.288817121303
 20
2243.42927561634
 10
333.324417801745
 20
2244.08092433429
 10
333.190146319496
 20
2244.71958279474
 10
332.895153054177
 20
2245.30172747904
 10
332.459541309321
 20
2245.78768618901
 10
331.912997305456
 20
2246.14434164164
 10
331.29276711324
 20
2246.34738835723
 10
330.641118395293
 20
2246.38298903767
 10
330.002459934843
 20
2246.24871755542
 10
329.420315250536
 20
2245.95372429011
 10
328.934356540569
 20
2245.51811254525
 10
328.57770108794
 20
2244.97156854138
 10
328.374654372346
 20
2244.35133834917
 10
328.339053691904
 20
2243.69968963122
 10
328.473325174153
 20
2243.06103117077
 10
328.768318439472
 20
2242.47888648646
 10
329.203930184328
 20
2241.9929277765
  0
LWPOLYLINE
  5
67
100
AcDbEntity
  8
Sides
  6
ByLayer
 62
  256
370
   -1
100
AcDbPolyline
 90
   25
 70
    0
 43
0
 10
143.738609441871
 20
2072.19344651566
 10
143.129737732099
 20
2071.95850247623
 10
142.602420814671
 20
2071.5739763663
 10
142.192594466078
 20
2071.0660730048
 10
141.928187674706
 20
2070.46940516647
 10
141.827219326434
 20
2069.82463477845
 10
141.896570247339
 20
2069.17570187714
 10
142.131514286769
 20
2068.56683016737
 10
142.5160403967
 20
2068.03951324994
 10
143.023943758201
 20
2067.62968690135
 10
143.620611596534
 20
2067.36528010998
 10
144.265381984557
 20
2067.26431176171
 10
144.914314885861
 20
2067.33366268261
 10
145.523186595633
 20
2067.56860672204
 10
146.050503513061
 20
2067.95313283197
 10
146.460329861654
 20
2068.46103619347
 10
146.724736653027
 20
2069.05770403181
 10
146.825705001298
 20
2069.70247441983
 10
146.756354080393
 20
2070.35140732113
 10
146.521410040963
 20
2070.9602790309
 10
146.136883931032
 20
2071.48759594833
 10
145.628980569531
 20
2071.89742229693
 10
145.032312731198
 20
2072.1618290883
 10
144.387542343175
 20
2072.26279743657
 10
143.738609441871
 20
2072.19344651566
  0
LWPOLYLINE
  5
68
100
AcDbEntity
  8
Front
  6
ByLayer
 62
  256
370
   -1
100
AcDbPolyline
 90
   41
 70
    0
 43
0
 10
607.198790506931
 20
2061.21427249668
 10
607.198790506929
 20
1952.71427249668
 10
604.198790506932
 20
1952.71427249668
 10
604.198790506932
 20
1927.71427249668
 10
607.198790506929
 20
1927.71427249668
 10
607.198790506932
 20
1907.71427249668
 10
604.198790506932
 20
1907.71427249668
 10
604.198790506932
 20
1882.71427249668
 10
596.206939474225
 20
1882.71427249669
 10
596.206939474225
 20
1879.71427249669
 10
581.189157254385
 20
1879.71427249669
 10
581.189157254385
 20
1882.71427249669
 10
561.189126792604
 20
1882.71427249669
 10
561.189126792604
 20
1879.71427249669
 10
546.219232891631
 20
1879.71427249669
 10
546.219232891631
 20
1882.71427249669
 10
531.219210045296
 20
1882.71427249669
 10
531.2192100453
 20
2309.71427249668
 10
546.219232891636
 20
2309.71427249668
 10
546.219232891636
 20
2312.71427249668
 10
561.189126792609
 20
2312.71427249668
 10
561.189126792609
 20
2309.71427249668
 10
581.189157254389
 20
2309.71427249668
 10
581.189157254389
 20
2312.71427249668
 10
596.206939474229
 20
2312.71427249668
 10
596.206939474229
 20
2309.71427249668
 10
604.198790506936
 20
2309.71427249668
 10
604.198790506936
 20
2284.71427249668
 10
607.198790506936
 20
2284.71427249668
 10
607.198790506935
 20
2264.71427249668
 10
604.198790506936
 20
2264.71427249668
 10
604.198790506936
 20
2239.71427249668
 10
607.198790506935
 20
2239.71427249668
 10
607.1987905069331
 20
2131.21427249668
 10
604.198790506934
 20
2131.21427249668
 10
604.198790506934
 20
2106.21427249668
 10
607.198790506932
 20
2106.21427249668
 10
607.198790506932
 20
2086.21427249668
 10
604.198790506934
 20
2086.21427249668
 10
604.198790506934
 20
2061.21427249668
 10
607.198790506931
 20
2061.21427249668
  0
LWPOLYLINE
  5
69
100
AcDbEntity
  8
Top
  6
ByLayer
 62
  256
370
   -1
100
AcDbPolyline
 90
   45
 70
    0
 43
0
 10
497.385261282987
 20
1663.21427249669
 10
497.385261282987
 20
1643.21427249669
 10
500.385261282987
 20
1643.21427249669
 10
500.385261282987
 20
1618.21427249669
 10
497.385261282987
 20
1618.21427249669
 10
497.385261282988
 20
1517.71427249669
 10
500.385261282988
 20
1517.71427249669
 10
500.385261282988
 20
1492.71427249669
 10
497.385261282988
 20
1492.71427249669
 10
497.385261282988
 20
1472.71427249669
 10
500.385261282988
 20
1472.71427249669
 10
500.385261282988
 20
1447.71427249669
 10
497.385261282988
 20
1447.71427249669
 10
497.385261282988
 20
1436.71427249669
 10
508.385261282987
 20
1436.71427249669
 10
508.385261282987
 20
1439.71427249669
 10
533.385261282987
 20
1439.71427249669
 10
533.385261282987
 20
1436.71427249669
 10
553.385261282987
 20
1436.71427249669
 10
553.385261282987
 20
1439.71427249669
 10
578.385261282987
 20
1439.71427249669
 10
578.385261282987
 20
1436.71427249669
 10
593.385261282987
 20
1436.71427249669
 10
593.385261282983
 20
1869.71427249669
 10
578.3852612829839
 20
1869.71427249669
 10
578.3852612829839
 20
1866.71427249669
 10
553.3852612829839
 20
1866.71427249669
 10
553.3852612829839
 20
1869.71427249669
 10
533.3852612829839
 20
1869.71427249669
 10
533.3852612829839
 20
1866.71427249669
 10
508.385261282984
 20
1866.71427249669
 10
508.385261282984
 20
1869.71427249669
 10
497.385261282984
 20
1869.71427249669
 10
497.385261282984
 20
1858.71427249669
 10
500.385261282984
 20
1858.71427249669
 10
500.385261282985
 20
1833.71427249669
 10
497.385261282985
 20
1833.71427249669
 10
497.385261282985
 20
1813.71427249669
 10
500.385261282985
 20
1813.71427249669
 10
500.385261282985
 20
1788.71427249669
 10
497.385261282985
 20
1788.71427249669
 10
497.385261282986
 20
1688.21427249669
 10
500.385261282986
 20
1688.21427249669
 10
500.385261282987
 20
1663.21427249669
 10
497.385261282987
 20
1663.21427249669
  0
ENDSEC
  0
SECTION
  2
OBJECTS
  0
DICTIONARY
  5
C
330
0
100
AcDbDictionary
281
    1
  3
ACAD_GROUP
350
D
  0
DICTIONARY
  5
D
330
C
100
AcDbDictionary
281
    1
  0
ENDSEC
  0
EOF
